<?xml version="1.0" encoding="utf-8"?>
<!-- Generator: Adobe Illustrator 19.0.0, SVG Export Plug-In . SVG Version: 6.00 Build 0)  -->
<svg version="1.1" id="Layer_1" xmlns="http://www.w3.org/2000/svg" xmlns:xlink="http://www.w3.org/1999/xlink" x="0px" y="0px"
	 viewBox="0 0 640 960" style="enable-background:new 0 0 640 960;" xml:space="preserve">
<style type="text/css">
	.st0{opacity:0.22;}
	.st1{fill:#FFFFFF;}
	.st2{fill:#6370B5;}
	.st3{fill:#687CBD;}
</style>
<g id="XMLID_3_">
	<g id="XMLID_2_">
		<g id="XMLID_1_" class="st0">
			
				<image style="overflow:visible;opacity:0.42;" width="2823" height="4199" id="XMLID_35_" xlink:href="FA597296.png"  transform="matrix(0.24 0 0 0.24 -9.8861 -18.2748)">
			</image>
			<g id="XMLID_28_">
				<path id="XMLID_34_" class="st1" d="M624.6,967.3H17.1c-11,0-20-9-20-20V9.7c0-11,9-20,20-20h607.5c11,0,20,9,20,20v937.5
					C644.6,958.3,635.7,967.3,624.6,967.3z"/>
			</g>
		</g>
	</g>
	<path id="XMLID_309_" class="st2" d="M624.6,967.3H17.1c-11,0-20-9-20-20V9.7c0-11,9-20,20-20h607.5c11,0,20,9,20,20v937.5
		C644.6,958.3,635.7,967.3,624.6,967.3z"/>
	<g id="XMLID_13_">
		<g id="XMLID_73_">
			<path id="XMLID_79_" class="st3" d="M153.4,141.3L19.9,2.8C6,12.1-2.9,25.6-2.9,40.6v183.7L153.4,141.3z"/>
			<path id="XMLID_78_" class="st3" d="M-2.9,574.9v341.5c0,28.1,30.7,50.9,68.5,50.9h205.9l303.1-161.1l-342.9-356L-2.9,574.9z"/>
			<path id="XMLID_77_" class="st3" d="M398.5,308.3l246.2-130.8V40.6c0-28.1-30.7-50.9-68.5-50.9H91.6L398.5,308.3z"/>
			<polygon id="XMLID_76_" class="st3" points="644.6,703.3 644.6,490.5 447.4,595.3 582.9,736.1 			"/>
			<polygon id="XMLID_75_" class="st3" points="411.5,558 644.6,434.1 644.6,221.3 275.9,417.3 			"/>
			<polygon id="XMLID_74_" class="st3" points="342.8,338 175.3,164.1 -2.9,258.8 -2.9,521.7 			"/>
		</g>
	</g>
	<g id="XMLID_20_">
		<g id="XMLID_21_">
			<path id="XMLID_22_" class="st1" d="M1110-75.4h-26.2c-1.2,0-2.1-0.7-2.1-1.6l0,0c0-0.9,0.9-1.6,2.1-1.6h26.2
				c1.2,0,2.1,0.7,2.1,1.6l0,0C1112.1-76.1,1111.2-75.4,1110-75.4z"/>
			<path id="XMLID_23_" class="st1" d="M1110-67.1h-26.2c-1.2,0-2.1-0.7-2.1-1.6l0,0c0-0.9,0.9-1.6,2.1-1.6h26.2
				c1.2,0,2.1,0.7,2.1,1.6l0,0C1112.1-67.8,1111.2-67.1,1110-67.1z"/>
			<path id="XMLID_24_" class="st1" d="M1110-58.8h-26.2c-1.2,0-2.1-0.7-2.1-1.6l0,0c0-0.9,0.9-1.6,2.1-1.6h26.2
				c1.2,0,2.1,0.7,2.1,1.6l0,0C1112.1-59.5,1111.2-58.8,1110-58.8z"/>
		</g>
		<path id="XMLID_25_" class="st1" d="M623.4-58.9c-0.8,0-1.5-0.2-2.1-0.6l-10.5-6.6c-0.7-0.5-1.2-1.2-1.2-1.9
			c0-0.7,0.4-1.4,1.2-1.9l10.5-6.6c1.4-0.9,3.5-0.7,4.7,0.3c1.2,1,1,2.6-0.4,3.5l-7.5,4.7l7.5,4.7c1.4,0.9,1.6,2.4,0.4,3.5
			C625.3-59.2,624.4-58.9,623.4-58.9z"/>
	</g>
</g>
</svg>
